<?xml version="1.0" encoding="UTF-8"?>
<svg version="1.1" xmlns="http://www.w3.org/2000/svg" width="64" height="64">
<path d="M0 0 C1.32 0 2.64 0 4 0 C4.33 1.65 4.66 3.3 5 5 C6.010625 4.505 7.02125 4.01 8.0625 3.5 C11.77988188 1.88407686 14.93956657 1.75140203 19 2 C18.42805835 5.31726155 17.42999536 6.72635823 15 9 C15.77923828 9.43699219 15.77923828 9.43699219 16.57421875 9.8828125 C22.95539566 13.63367065 27.75096236 17.72686965 30.48828125 24.89453125 C32.4373791 32.9141018 31.42693797 39.7826023 27.34375 46.8828125 C26.9003125 47.58148438 26.456875 48.28015625 26 49 C25.4225 49.928125 24.845 50.85625 24.25 51.8125 C18.08748255 57.80383641 10.51090143 60.53043302 2 61 C-7.55198217 60.47874586 -14.26876017 57.10794863 -20.8125 50.25 C-25.37569856 44.70748486 -27.67020927 38.36192476 -27.3515625 31.10546875 C-26.0807582 23.49476301 -22.55753769 16.44778265 -16.34765625 11.75 C-14.92809773 10.78804035 -13.46740265 9.88726672 -12 9 C-12.495 8.401875 -12.99 7.80375 -13.5 7.1875 C-15 5 -15 5 -15 2 C-9.34605369 1.65384002 -5.96993194 2.56574762 -1 5 C-0.67 3.35 -0.34 1.7 0 0 Z " fill="#EA2427" transform="translate(30,2)"/>
<path d="M0 0 C4.67411452 5.89344874 4.8019051 11.67593344 4 19 C2.74907998 22.63267172 1.05450524 25.76295976 -1 29 C-1.5775 29.928125 -2.155 30.85625 -2.75 31.8125 C-8.91251745 37.80383641 -16.48909857 40.53043302 -25 41 C-34.15920728 40.50017968 -40.17017828 37.20454471 -47.0625 31.4375 C-49 29 -49 29 -48.8125 26.6875 C-48.544375 26.130625 -48.27625 25.57375 -48 25 C-47.5978125 25.63421875 -47.195625 26.2684375 -46.78125 26.921875 C-43.22347077 31.07261744 -37.35220643 30.78497836 -32.1796875 31.2578125 C-24.02315386 31.59861474 -19.34709851 29.36265777 -12.8125 24.75 C-9.91373075 21.91564785 -8.05505824 19.17763661 -6.078125 15.671875 C-5 14 -5 14 -3 13 C-1.27293636 8.7331369 -0.54676783 4.55639859 0 0 Z " fill="#991623" transform="translate(57,22)"/>
<path d="M0 0 C1.32 0 2.64 0 4 0 C4.33 1.65 4.66 3.3 5 5 C6.5159375 4.2575 6.5159375 4.2575 8.0625 3.5 C11.77988188 1.88407686 14.93956657 1.75140203 19 2 C18.45912682 5.78611227 16.88277668 7.55400767 14 10 C13.34 10 12.68 10 12 10 C12.639375 11.0725 13.27875 12.145 13.9375 13.25 C15.5671548 15.9836145 16.19545912 17.78183646 17 21 C13.7 20.67 10.4 20.34 7 20 C5.02 22.97 5.02 22.97 3 26 C2.01 25.67 1.02 25.34 0 25 C-1.1875 21.9375 -1.1875 21.9375 -2 19 C-2.9075 19.33 -3.815 19.66 -4.75 20 C-8 21 -8 21 -12 21 C-11.25 16.25 -11.25 16.25 -9 14 C-9.11286983 10.72677493 -10.20988389 9.79011611 -12.5625 7.4375 C-13.366875 6.633125 -14.17125 5.82875 -15 5 C-15 4.01 -15 3.02 -15 2 C-9.34605369 1.65384002 -5.96993194 2.56574762 -1 5 C-0.67 3.35 -0.34 1.7 0 0 Z " fill="#162829" transform="translate(30,2)"/>
<path d="M0 0 C5.68361633 -0.47363469 10.41028285 0.37300401 15 4 C15.7265625 6.140625 15.7265625 6.140625 16 8 C14.02 8.33 12.04 8.66 10 9 C11.32 9.33 12.64 9.66 14 10 C13.01958581 12.45103548 12.3486182 13.76758786 10.125 15.25 C8 16 8 16 4 16 C4.350625 15.4225 4.70125 14.845 5.0625 14.25 C6.13736135 12.10780683 6.13736135 12.10780683 5.9375 10.0625 C5.0170685 7.71715056 5.0170685 7.71715056 2.4375 5.4375 C1.633125 4.633125 0.82875 3.82875 0 3 C0 2.01 0 1.02 0 0 Z " fill="#22302E" transform="translate(15,4)"/>
<path d="M0 0 C0.99 0.66 1.98 1.32 3 2 C2.38722388 4.96175123 1.74627478 6.38058783 0 9 C0.3403125 10.175625 0.3403125 10.175625 0.6875 11.375 C0.790625 12.24125 0.89375 13.1075 1 14 C-1.4375 16.8125 -1.4375 16.8125 -4 19 C-4.99 18.67 -5.98 18.34 -7 18 C-6.34 16.35 -5.68 14.7 -5 13 C-5.99 12.67 -6.98 12.34 -8 12 C-8.5 8.8125 -8.5 8.8125 -8 5 C-5.57299378 2.84975764 -2.90883109 1.40896506 0 0 Z " fill="#ED7273" transform="translate(19,11)"/>
<path d="M0 0 C0.33 0 0.66 0 1 0 C1 1.98 1 3.96 1 6 C0.01 6.33 -0.98 6.66 -2 7 C-4.63285514 12.26571028 -4.57026596 18.23863651 -4 24 C-3.64421875 24.85464844 -3.2884375 25.70929687 -2.921875 26.58984375 C-1.896413 29.27081856 -2.02148229 30.35800218 -3 33 C-7.15577719 22.90739824 -8.44918575 16.5980408 -4.16796875 6.296875 C-2.98166705 3.96394724 -1.6788136 2.00537734 0 0 Z " fill="#C03335" transform="translate(10,17)"/>
<path d="M0 0 C-0.60041109 3.36230209 -1.47677724 5.64499209 -4 8 C-7.6875 8.25 -7.6875 8.25 -11 8 C-10.9375 5.6875 -10.9375 5.6875 -10 3 C-6.49851158 1.11957103 -3.9919694 0 0 0 Z " fill="#3B9942" transform="translate(45,4)"/>
<path d="M0 0 C4.6175429 -0.32215416 7.33874929 0.07099943 11 3 C11.8125 5.1875 11.8125 5.1875 12 7 C6.75789474 7.43684211 6.75789474 7.43684211 4 7 C1.5 4.625 1.5 4.625 0 2 C0 1.34 0 0.68 0 0 Z " fill="#43AC4A" transform="translate(19,5)"/>
<path d="M0 0 C0.45375 0.61875 0.9075 1.2375 1.375 1.875 C7.57443588 6.89359095 17.3190403 6.44510177 25 7 C25 7.33 25 7.66 25 8 C22.89651926 8.19504458 20.79217415 8.38078496 18.6875 8.5625 C17.51574219 8.66691406 16.34398437 8.77132812 15.13671875 8.87890625 C12 9 12 9 9 8 C8.38125 8.2475 7.7625 8.495 7.125 8.75 C6.073125 8.87375 6.073125 8.87375 5 9 C2.25 6.8125 2.25 6.8125 0 4 C0 2.68 0 1.36 0 0 Z " fill="#BE1722" transform="translate(8,47)"/>
<path d="M0 0 C3.3 0.66 6.6 1.32 10 2 C10.33 1.34 10.66 0.68 11 0 C11 1.32 11 2.64 11 4 C7.05272412 4.17942163 4.4019487 4.09350689 1 2 C0.87625 2.78375 0.7525 3.5675 0.625 4.375 C0 7 0 7 -2 9 C-4.625 8.625 -4.625 8.625 -7 8 C-6 6 -6 6 -3 5 C-1.30117552 2.50240018 -1.30117552 2.50240018 0 0 Z " fill="#BC1E2A" transform="translate(37,21)"/>
<path d="M0 0 C0 0.99 0 1.98 0 3 C0.99 3.33 1.98 3.66 3 4 C0.53846154 8.8 0.53846154 8.8 -2.1875 9.8125 C-2.785625 9.874375 -3.38375 9.93625 -4 10 C-4 6 -4 6 -3 4 C-3.66 3.67 -4.32 3.34 -5 3 C-2.25 0 -2.25 0 0 0 Z " fill="#F37471" transform="translate(17,20)"/>
<path d="M0 0 C0.99 0.33 1.98 0.66 3 1 C3 2.65 3 4.3 3 6 C2.34 6 1.68 6 1 6 C1 7.65 1 9.3 1 11 C0.01 10.34 -0.98 9.68 -2 9 C-2.43132515 4.94554358 -2.30019361 3.45029042 0 0 Z " fill="#2E9A46" transform="translate(31,14)"/>
<path d="M0 0 C-0.98041419 2.45103548 -1.6513818 3.76758786 -3.875 5.25 C-6 6 -6 6 -10 6 C-9.01958581 3.54896452 -8.3486182 2.23241214 -6.125 0.75 C-4 0 -4 0 0 0 Z " fill="#3BA545" transform="translate(29,14)"/>
<path d="M0 0 C0.99 0.66 1.98 1.32 3 2 C2.29445932 5.66881155 0.72264494 8.70450534 -1 12 C-1.33 11.01 -1.66 10.02 -2 9 C-2.66 9 -3.32 9 -4 9 C-3.6875 7.125 -3.6875 7.125 -3 5 C-2.01 4.34 -1.02 3.68 0 3 C-0.66 2.34 -1.32 1.68 -2 1 C-1.34 0.67 -0.68 0.34 0 0 Z " fill="#E73B3F" transform="translate(19,11)"/>
<path d="M0 0 C0.33 0 0.66 0 1 0 C1 2.97 1 5.94 1 9 C-0.98 9.99 -0.98 9.99 -3 11 C-3.66 9.35 -4.32 7.7 -5 6 C-4.01 6.495 -4.01 6.495 -3 7 C-2.67 5.68 -2.34 4.36 -2 3 C-1.34 3 -0.68 3 0 3 C0 2.01 0 1.02 0 0 Z " fill="#164B34" transform="translate(34,17)"/>
<path d="M0 0 C0.33 0 0.66 0 1 0 C1 1.98 1 3.96 1 6 C0.01 6.33 -0.98 6.66 -2 7 C-3.71567661 10.50294871 -3.71567661 10.50294871 -5 14 C-5.9970971 11.37511186 -6.13116719 10.31725398 -5.0390625 7.67578125 C-4.57242187 6.89589844 -4.10578125 6.11601562 -3.625 5.3125 C-3.16351563 4.52488281 -2.70203125 3.73726562 -2.2265625 2.92578125 C-1 1 -1 1 0 0 Z " fill="#DD4440" transform="translate(10,17)"/>
<path d="M0 0 C5.51612903 0.61290323 5.51612903 0.61290323 7.875 2.5 C9 4 9 4 9 5 C3.5 5.36666667 3.5 5.36666667 1.125 3.625 C0 2 0 2 0 0 Z " fill="#288C40" transform="translate(35,14)"/>
<path d="M0 0 C1.32 0 2.64 0 4 0 C3.65120368 3.25543229 2.97866739 4.01873107 0.4375 6.25 C-0.366875 6.8275 -1.17125 7.405 -2 8 C-2.66 7.34 -3.32 6.68 -4 6 C-3.525625 5.566875 -3.05125 5.13375 -2.5625 4.6875 C-0.76313043 2.97690387 -0.76313043 2.97690387 0 0 Z " fill="#1B3437" transform="translate(45,4)"/>
<path d="M0 0 C0 0.99 0 1.98 0 3 C-3.33303391 5.49977543 -4.73303602 6 -9 6 C-9 5.01 -9 4.02 -9 3 C-6.03 2.01 -3.06 1.02 0 0 Z " fill="#1C2C29" transform="translate(27,17)"/>
<path d="M0 0 C0 1.32 0 2.64 0 4 C-2.97 3.01 -5.94 2.02 -9 1 C-9 0.67 -9 0.34 -9 0 C-2.25 -1.125 -2.25 -1.125 0 0 Z " fill="#142B2A" transform="translate(43,12)"/>
<path d="M0 0 C-0.625 1.9375 -0.625 1.9375 -2 4 C-5.125 4.75 -5.125 4.75 -8 5 C-3.375 0 -3.375 0 0 0 Z " fill="#41B243" transform="translate(44,6)"/>
<path d="M0 0 C0.33 0 0.66 0 1 0 C1 1.65 1 3.3 1 5 C-0.65 5.33 -2.3 5.66 -4 6 C-4 5.01 -4 4.02 -4 3 C-3.01 2.67 -2.02 2.34 -1 2 C-0.67 1.34 -0.34 0.68 0 0 Z " fill="#A41C26" transform="translate(35,24)"/>
<path d="M0 0 C0.99 0.66 1.98 1.32 3 2 C2.625 3.9375 2.625 3.9375 2 6 C1.01 6.495 1.01 6.495 0 7 C-0.33 6.01 -0.66 5.02 -1 4 C-0.67 3.67 -0.34 3.34 0 3 C-0.66 2.34 -1.32 1.68 -2 1 C-1.34 0.67 -0.68 0.34 0 0 Z " fill="#D84A43" transform="translate(19,11)"/>
</svg>
